# xmcd CD database file
#
# Track frame offsets:
#	150
#	19690
#	53494
#	77183
#	118298
#	149478
#	186474
#
# Disc length: 2944 seconds
#
# Revision: 0
# Processed by: cddbd v1.5.2PL0 Copyright (c) Steve Scherf et al.
# Submitted via: CDex 1.70beta2
#
DISCID=610b7e07
DTITLE=X Międzynarodowy Krokus Jazz Festival - CD2
DYEAR=2011
DGENRE=Jazz
TTITLE0=Omnivore -  Omnivore
TTITLE1=High Definition - Hopasa
TTITLE2=Raczkowski-Mielcarek Duo - Nienazwany Utwor
TTITLE3=URWAKwintet Half-Life
TTITLE4=Makumi bashika Trio - Finally
TTITLE5=Jan Malecha Quartet - June, Jule
TTITLE6=Mit 4 Spiel 5 - O Zwei
EXTD=YEAR: 2011
EXTT0=
EXTT1=
EXTT2=
EXTT3=
EXTT4=
EXTT5=
EXTT6=
PLAYORDER=
